# xmcd
#
# Track frame offsets:
#	183
#	17505
#	35400
#	52193
#	76458
#	92720
#	114435
#	130960
#	149818
#	166268
#
# Disc length: 2540 seconds
#
# Revision: 1
# Processed by: cddbd v1.5.2PL0 Copyright (c) Steve Scherf et al.
# Submitted via: audiograbber 1.83.01
#
DISCID=8609ea0a
DTITLE=Killer (B) - Fatal Attraction
DYEAR=1990
DGENRE=Heavy Metal
TTITLE0=Middle Ages
TTITLE1=Fatal Attraction
TTITLE2=Break Down The Wall
TTITLE3=Steel Meets Steel
TTITLE4=Kik On Your Ass
TTITLE5=Lift Me Up
TTITLE6=Highway Killers
TTITLE7=Hibernation
TTITLE8=Evil On The Rad
TTITLE9=I'm On Fire
EXTD=
EXTT0=
EXTT1=
EXTT2=
EXTT3=
EXTT4=
EXTT5=
EXTT6=
EXTT7=
EXTT8=
EXTT9=
PLAYORDER=
